<svg id="geografia-logo-g" data-name="geografia-logo-g" xmlns="http://www.w3.org/2000/svg" viewBox="0 0 136 136"><defs><style>.cls-1{fill:#ec1c24;}</style></defs><title>Geografia Text - SVG</title><path class="cls-1" d="M157.63,63.21l-9.83,9.31A75.11,75.11,0,0,0,124.56,56.7a62.55,62.55,0,0,0-24.62-5.39,58.71,58.71,0,0,0-28.42,7.33A53.21,53.21,0,0,0,50.6,78.52,51.31,51.31,0,0,0,43.18,105a52.37,52.37,0,0,0,7.68,27.21,54.52,54.52,0,0,0,21.22,20.27,61,61,0,0,0,29.67,7.37q19.58,0,33.12-11a43.58,43.58,0,0,0,16-28.63H110.45V108h54.68q-0.17,29.41-17.47,46.7T101.4,172q-35.19,0-55.72-24A63.73,63.73,0,0,1,29.9,105.3,65.45,65.45,0,0,1,39,71.75,64.4,64.4,0,0,1,63.79,47.47q15.78-8.75,35.71-8.75a79.4,79.4,0,0,1,30.36,5.82Q144.09,50.36,157.63,63.21Z" transform="translate(-29.9 -36.31)"/></svg>
