<svg id="Layer_2" data-name="Layer 2" xmlns="http://www.w3.org/2000/svg" viewBox="0 0 864.81 169.22"><defs><style>.cls-1{fill:#ec1c24;}</style></defs><title>Geografia Text - SVG</title><path class="cls-1" d="M157.63,63.21l-9.83,9.31A75.11,75.11,0,0,0,124.56,56.7a62.55,62.55,0,0,0-24.62-5.39,58.71,58.71,0,0,0-28.42,7.33A53.21,53.21,0,0,0,50.6,78.52,51.31,51.31,0,0,0,43.18,105a52.37,52.37,0,0,0,7.68,27.21,54.52,54.52,0,0,0,21.22,20.27,61,61,0,0,0,29.67,7.37q19.58,0,33.12-11a43.58,43.58,0,0,0,16-28.63H110.45V108h54.68q-0.17,29.41-17.47,46.7T101.4,172q-35.19,0-55.72-24A63.73,63.73,0,0,1,29.9,105.3,65.45,65.45,0,0,1,39,71.75,64.4,64.4,0,0,1,63.79,47.47q15.78-8.75,35.71-8.75a79.4,79.4,0,0,1,30.36,5.82Q144.09,50.36,157.63,63.21Z" transform="translate(-29.9 -36.31)"/><path class="cls-1" d="M266.3,137.65L276.48,143a55.48,55.48,0,0,1-11.57,15.87A45.94,45.94,0,0,1,250.15,168a51.5,51.5,0,0,1-18.56,3.15q-23,0-35.91-15.05t-12.95-34a50.17,50.17,0,0,1,11-31.83q13.9-17.77,37.21-17.77,24,0,38.33,18.2,10.19,12.85,10.36,32.08H195.15q0.34,16.35,10.45,26.8a33.33,33.33,0,0,0,25,10.46,40.1,40.1,0,0,0,13.95-2.49A36.67,36.67,0,0,0,256,151Q260.78,146.84,266.3,137.65Zm0-25.27q-2.42-9.66-7-15.44A33.33,33.33,0,0,0,247,87.62a37.44,37.44,0,0,0-16-3.54A34.41,34.41,0,0,0,207.32,93q-7.26,6.47-11,19.41H266.3Z" transform="translate(-29.9 -36.31)"/><path class="cls-1" d="M346.52,72.53q21.69,0,35.94,15.7a50.38,50.38,0,0,1-.73,68.27Q368,171.2,346.52,171.2t-35.29-14.71a50.27,50.27,0,0,1-.73-68.18Q324.74,72.53,346.52,72.53Zm0,11.82a34.84,34.84,0,0,0-25.88,11.13,37.19,37.19,0,0,0-10.82,26.91,38.15,38.15,0,0,0,4.93,19A34.94,34.94,0,0,0,328,154.94a37.9,37.9,0,0,0,36.87,0,35,35,0,0,0,13.33-13.58,38.17,38.17,0,0,0,4.93-19,37.11,37.11,0,0,0-10.86-26.91Q361.45,84.35,346.47,84.35Z" transform="translate(-29.9 -36.31)"/><path class="cls-1" d="M498.66,74.94h12.07v74.78q0,19.75-3.45,28.89a37.57,37.57,0,0,1-16.47,19.92q-11.73,7-28.2,7a64.55,64.55,0,0,1-21.69-3.42,43.4,43.4,0,0,1-15.65-9.17q-6-5.76-11.13-16.83h13.11a34.63,34.63,0,0,0,13.82,13.8q8.46,4.48,21,4.48,12.35,0,20.85-4.6T495,178.24q3.63-7,3.63-22.48v-4.83A45.73,45.73,0,0,1,482,164.17a49.46,49.46,0,0,1-45.24-1.81,45.64,45.64,0,0,1-17.61-17.29,47.27,47.27,0,0,1-6.22-23.89,48.83,48.83,0,0,1,48.52-48.64,45,45,0,0,1,19.64,4.36q9.11,4.36,17.57,14.36V74.94ZM463,84.17a38.17,38.17,0,0,0-19.06,5,35.94,35.94,0,0,0-13.8,13.71,37.52,37.52,0,0,0-5,18.93q0,15.44,10.35,25.53t26.82,10.09q16.64,0,26.78-10t10.13-26.31a38.11,38.11,0,0,0-4.66-18.93A34,34,0,0,0,481.41,89,36.71,36.71,0,0,0,463,84.17Z" transform="translate(-29.9 -36.31)"/><path class="cls-1" d="M532,74.94h12.33V88.66q5.52-8.11,11.64-12.12a23,23,0,0,1,12.76-4,22,22,0,0,1,10.69,3.19l-6.3,10.18a16.81,16.81,0,0,0-6.38-1.64q-6,0-11.64,5t-8.54,15.4q-2.24,8-2.24,32.43v31.74H532V74.94Z" transform="translate(-29.9 -36.31)"/><path class="cls-1" d="M683.23,74.94v93.84h-11.9V152.65a51.74,51.74,0,0,1-17,13.89,47.58,47.58,0,0,1-54.68-9.79q-14.1-14.44-14.1-35.15a47.56,47.56,0,0,1,14.23-34.67A46.4,46.4,0,0,1,634,72.53a44.28,44.28,0,0,1,20.92,4.92,47.6,47.6,0,0,1,16.43,14.75V74.94h11.9ZM635,84.17A36.41,36.41,0,0,0,602.8,103a38,38,0,0,0,0,37.91A37,37,0,0,0,616.49,155a35.67,35.67,0,0,0,18.39,5,37.7,37.7,0,0,0,18.78-5,35,35,0,0,0,13.65-13.53,38.6,38.6,0,0,0,4.78-19.21q0-16.28-10.73-27.22A35.53,35.53,0,0,0,635,84.17Z" transform="translate(-29.9 -36.31)"/><path class="cls-1" d="M749,38.72V50.54q-6.64-2.85-11.38-2.85a11.08,11.08,0,0,0-5.87,1.42,6.29,6.29,0,0,0-2.93,3.28q-0.6,1.86-.6,9.88V74.94h19.59V85.38h-19.6l-0.07,83.4H716.09V85.38H703.76V74.94h12.33V60.28q0-10.09,1.85-14.4a14.79,14.79,0,0,1,6.3-6.94A20.71,20.71,0,0,1,735,36.31,51.05,51.05,0,0,1,749,38.72Z" transform="translate(-29.9 -36.31)"/><path class="cls-1" d="M770,36.31a10,10,0,0,1,10,10,9.92,9.92,0,0,1-19.84,0,9.66,9.66,0,0,1,2.92-7.07A9.48,9.48,0,0,1,770,36.31Zm-6,38.64h12.07v93.84H764V74.94Z" transform="translate(-29.9 -36.31)"/><path class="cls-1" d="M894.71,74.94v93.84h-11.9V152.65a51.74,51.74,0,0,1-17,13.89,47.58,47.58,0,0,1-54.68-9.79Q797,142.31,797,121.61a47.56,47.56,0,0,1,14.23-34.67,46.4,46.4,0,0,1,34.24-14.4,44.28,44.28,0,0,1,20.92,4.92,47.6,47.6,0,0,1,16.43,14.75V74.94h11.9Zm-48.26,9.23A36.41,36.41,0,0,0,814.28,103a38,38,0,0,0,0,37.91A37,37,0,0,0,828,155a35.67,35.67,0,0,0,18.39,5,37.7,37.7,0,0,0,18.78-5,35,35,0,0,0,13.65-13.53,38.6,38.6,0,0,0,4.78-19.21q0-16.28-10.73-27.22A35.53,35.53,0,0,0,846.46,84.17Z" transform="translate(-29.9 -36.31)"/></svg>