<svg xmlns="http://www.w3.org/2000/svg" viewBox="0 0 504.876 209.699"><defs><style>.a{fill:#ef4b47;}</style></defs><title>Spendmapp-Logo-New-No-Geo</title><rect class="a" x="16.268" y="63.072" width="2.486" height="71.386" transform="translate(-0.514 0.093) rotate(-0.298)"/><rect class="a" x="8.876" y="41.256" width="69.637" height="2.483" transform="translate(-16.84 35.365) rotate(-37.484)"/><rect class="a" x="102.007" y="-7.824" width="2.484" height="64.118" transform="translate(69.679 124.836) rotate(-84.756)"/><rect class="a" x="154.831" y="18.818" width="2.485" height="60.675" transform="translate(9.076 121.037) rotate(-43.541)"/><rect class="a" x="124.524" y="167.825" width="59.756" height="2.483" transform="translate(-71.439 131.392) rotate(-38.125)"/><rect class="a" x="94.545" y="151.158" width="2.49" height="70.47" transform="translate(-99.342 262.825) rotate(-84.19)"/><rect class="a" x="38.911" y="128.539" width="2.484" height="62.092" transform="translate(-95.709 66.735) rotate(-41.528)"/><rect class="a" x="27.931" y="56.282" width="2.485" height="40.586" transform="translate(-40.89 34.078) rotate(-37.905)"/><rect class="a" x="9.053" y="112.283" width="43.736" height="2.484" transform="translate(-83.221 84.967) rotate(-60.717)"/><rect class="a" x="31.804" y="72.295" width="46.736" height="2.482" transform="translate(-36.731 75.873) rotate(-54.577)"/><rect class="a" x="53.37" y="36.653" width="33.285" height="2.486" transform="translate(26.766 104.736) rotate(-85.522)"/><rect class="a" x="89.025" y="41.297" width="2.486" height="48.447" transform="translate(-9.178 116.035) rotate(-62.903)"/><rect class="a" x="97.488" y="49.679" width="52.659" height="2.485" transform="translate(24.53 140.731) rotate(-64.486)"/><rect class="a" x="58.487" y="85.727" width="2.483" height="54.551" transform="translate(-59.916 68.035) rotate(-41.543)"/><rect class="a" x="44.667" y="156.57" width="51.101" height="2.484" transform="translate(-101.37 177.639) rotate(-72.605)"/><rect class="a" x="61.376" y="101.864" width="66.908" height="2.483" transform="translate(-42.762 129.412) rotate(-58.218)"/><rect class="a" x="127.168" y="153.448" width="2.482" height="34.184" transform="translate(-23.073 20.12) rotate(-8.223)"/><rect class="a" x="100.646" y="117.412" width="2.486" height="52.216" transform="translate(-69.878 181.932) rotate(-67.233)"/><circle class="a" cx="18.262" cy="63.389" r="7.201" transform="translate(-45.192 81.426) rotate(-89.797)"/><circle class="a" cx="69.759" cy="20.366" r="7.202" transform="translate(49.148 90.052) rotate(-89.798)"/><circle class="a" cx="68.39" cy="53.548" r="7.202" transform="translate(14.607 121.753) rotate(-89.802)"/><path class="a" d="M48.84,92.618a7.2,7.2,0,1,1-7.173-7.228A7.2,7.2,0,0,1,48.84,92.618Z"/><path class="a" d="M24.9,134.486a7.2,7.2,0,1,1-7.172-7.23A7.2,7.2,0,0,1,24.9,134.486Z"/><circle class="a" cx="62.617" cy="182.208" r="7.201" transform="translate(-119.812 244.178) rotate(-89.797)"/><circle class="a" cx="77.2" cy="131.536" r="7.2" transform="translate(-54.609 208.271) rotate(-89.798)"/><path class="a" d="M117.161,75.322a7.2,7.2,0,1,1-7.173-7.228A7.2,7.2,0,0,1,117.161,75.322Z"/><circle class="a" cx="135.174" cy="27.791" r="7.202" transform="translate(106.905 162.866) rotate(-89.797)"/><circle class="a" cx="176.347" cy="71.768" r="7.201" transform="translate(103.958 247.862) rotate(-89.798)"/><path class="a" d="M133.156,155.531a7.2,7.2,0,1,1-7.173-7.228A7.2,7.2,0,0,1,133.156,155.531Z"/><path class="a" d="M138.045,189.362a7.2,7.2,0,1,1-7.173-7.228A7.2,7.2,0,0,1,138.045,189.362Z"/><path class="a" d="M184.514,151.952a7.2,7.2,0,1,1-7.173-7.228A7.2,7.2,0,0,1,184.514,151.952Z"/><rect class="a" x="124.017" y="151.836" width="50.86" height="2.487" transform="translate(-10.454 10.955) rotate(-4.056)"/><rect class="a" x="17.662" y="131.755" width="59.571" height="2.483" transform="translate(-6.514 2.507) rotate(-2.832)"/><rect class="a" x="69.355" y="40.172" width="65.092" height="2.485" transform="translate(-7.879 34.53) rotate(-18.529)"/><rect class="a" x="71.373" y="57.725" width="2.484" height="75.74" transform="translate(-6.089 4.947) rotate(-3.745)"/><polygon class="a" points="132.582 189.221 76.944 134.302 78.688 132.53 134.328 187.447 132.582 189.221"/><path class="a" d="M133.9,92.977v7.882h31.833v23.95H126.014V116.85h31.833v-7.8H126.014V85.019h39.714v7.958Z"/><path class="a" d="M205.9,124.809H181.95V136.9h-7.882v-44H205.9Zm-7.882-23.95H181.95V116.85h16.07Z"/><path class="a" d="M214.089,92.9h32.139v19.13H222.275v5.2h23.952v7.5H214.089Zm8.187,12.627h15.763v-5.511H222.275Z"/><path class="a" d="M285.941,92.9v31.908h-7.882v-23.95h-16.07v23.95h-7.882V92.9Z"/><path class="a" d="M326.266,82.341v42.468H294.127V92.9h23.95V82.341Zm-8.189,34.509V100.859H302.009V116.85Z"/><path class="a" d="M374.166,92.9v31.908h-8.189v-23.95H358.1v23.95h-7.882v-23.95h-8.187v23.95h-7.882V92.9Z"/><path class="a" d="M414.568,92.9v31.832H382.429V105.6h23.95v-5.2h-23.95V92.9Zm-8.189,24.716v-5.509H390.616v5.509Z"/><path class="a" d="M454.356,124.809h-23.95V136.9h-7.882v-44h31.832Zm-7.882-23.95H430.406V116.85h16.068Z"/><path class="a" d="M494.376,124.809h-23.95V136.9h-7.882v-44h31.832Zm-7.882-23.95H470.426V116.85h16.068Z"/></svg>