<svg xmlns="http://www.w3.org/2000/svg" viewBox="0 0 504.876 209.699"><defs><style>.a{fill:#ef4b47;}</style></defs><title>Spendmapp-Logo-New</title><rect class="a" x="16.268" y="63.072" width="2.486" height="71.386" transform="translate(-0.514 0.093) rotate(-0.298)"/><rect class="a" x="8.876" y="41.256" width="69.637" height="2.483" transform="translate(-16.84 35.365) rotate(-37.484)"/><rect class="a" x="102.007" y="-7.824" width="2.484" height="64.118" transform="translate(69.679 124.836) rotate(-84.756)"/><rect class="a" x="154.831" y="18.818" width="2.485" height="60.675" transform="translate(9.076 121.037) rotate(-43.541)"/><rect class="a" x="124.524" y="167.825" width="59.756" height="2.483" transform="translate(-71.439 131.392) rotate(-38.125)"/><rect class="a" x="94.545" y="151.158" width="2.49" height="70.47" transform="translate(-99.342 262.825) rotate(-84.19)"/><rect class="a" x="38.911" y="128.539" width="2.484" height="62.092" transform="translate(-95.709 66.735) rotate(-41.528)"/><rect class="a" x="27.931" y="56.282" width="2.485" height="40.586" transform="translate(-40.89 34.078) rotate(-37.905)"/><rect class="a" x="9.053" y="112.283" width="43.736" height="2.484" transform="translate(-83.221 84.967) rotate(-60.717)"/><rect class="a" x="31.804" y="72.295" width="46.736" height="2.482" transform="translate(-36.731 75.873) rotate(-54.577)"/><rect class="a" x="53.37" y="36.653" width="33.285" height="2.486" transform="translate(26.766 104.736) rotate(-85.522)"/><rect class="a" x="89.025" y="41.297" width="2.486" height="48.447" transform="translate(-9.178 116.035) rotate(-62.903)"/><rect class="a" x="97.488" y="49.679" width="52.659" height="2.485" transform="translate(24.53 140.731) rotate(-64.486)"/><rect class="a" x="58.487" y="85.727" width="2.483" height="54.551" transform="translate(-59.916 68.035) rotate(-41.543)"/><rect class="a" x="44.667" y="156.57" width="51.101" height="2.484" transform="translate(-101.37 177.639) rotate(-72.605)"/><rect class="a" x="61.376" y="101.864" width="66.908" height="2.483" transform="translate(-42.762 129.412) rotate(-58.218)"/><rect class="a" x="127.168" y="153.448" width="2.482" height="34.184" transform="translate(-23.073 20.12) rotate(-8.223)"/><rect class="a" x="100.646" y="117.412" width="2.486" height="52.216" transform="translate(-69.878 181.932) rotate(-67.233)"/><circle class="a" cx="18.262" cy="63.389" r="7.201" transform="translate(-45.192 81.426) rotate(-89.797)"/><circle class="a" cx="69.759" cy="20.366" r="7.202" transform="translate(49.148 90.052) rotate(-89.798)"/><circle class="a" cx="68.39" cy="53.548" r="7.202" transform="translate(14.607 121.753) rotate(-89.802)"/><path class="a" d="M48.84,92.618a7.2,7.2,0,1,1-7.173-7.228A7.2,7.2,0,0,1,48.84,92.618Z"/><path class="a" d="M24.9,134.486a7.2,7.2,0,1,1-7.172-7.23A7.2,7.2,0,0,1,24.9,134.486Z"/><circle class="a" cx="62.617" cy="182.208" r="7.201" transform="translate(-119.812 244.178) rotate(-89.797)"/><circle class="a" cx="77.2" cy="131.536" r="7.2" transform="translate(-54.609 208.271) rotate(-89.798)"/><path class="a" d="M117.161,75.322a7.2,7.2,0,1,1-7.173-7.228A7.2,7.2,0,0,1,117.161,75.322Z"/><circle class="a" cx="135.174" cy="27.791" r="7.202" transform="translate(106.905 162.866) rotate(-89.797)"/><circle class="a" cx="176.347" cy="71.768" r="7.201" transform="translate(103.958 247.862) rotate(-89.798)"/><path class="a" d="M133.156,155.531a7.2,7.2,0,1,1-7.173-7.228A7.2,7.2,0,0,1,133.156,155.531Z"/><path class="a" d="M138.045,189.362a7.2,7.2,0,1,1-7.173-7.228A7.2,7.2,0,0,1,138.045,189.362Z"/><path class="a" d="M184.514,151.952a7.2,7.2,0,1,1-7.173-7.228A7.2,7.2,0,0,1,184.514,151.952Z"/><rect class="a" x="124.017" y="151.836" width="50.86" height="2.487" transform="translate(-10.454 10.955) rotate(-4.056)"/><rect class="a" x="17.662" y="131.755" width="59.571" height="2.483" transform="translate(-6.514 2.507) rotate(-2.832)"/><rect class="a" x="69.355" y="40.172" width="65.092" height="2.485" transform="translate(-7.879 34.53) rotate(-18.529)"/><rect class="a" x="71.373" y="57.725" width="2.484" height="75.74" transform="translate(-6.089 4.947) rotate(-3.745)"/><polygon class="a" points="132.582 189.221 76.944 134.302 78.688 132.53 134.328 187.447 132.582 189.221"/><path class="a" d="M133.9,92.977v7.882h31.833v23.95H126.014V116.85h31.833v-7.8H126.014V85.019h39.714v7.958Z"/><path class="a" d="M205.9,124.809H181.95V136.9h-7.882v-44H205.9Zm-7.882-23.95H181.95V116.85h16.07Z"/><path class="a" d="M214.089,92.9h32.139v19.13H222.275v5.2h23.952v7.5H214.089Zm8.187,12.627h15.763v-5.511H222.275Z"/><path class="a" d="M285.941,92.9v31.908h-7.882v-23.95h-16.07v23.95h-7.882V92.9Z"/><path class="a" d="M326.266,82.341v42.468H294.127V92.9h23.95V82.341Zm-8.189,34.509V100.859H302.009V116.85Z"/><path class="a" d="M374.166,92.9v31.908h-8.189v-23.95H358.1v23.95h-7.882v-23.95h-8.187v23.95h-7.882V92.9Z"/><path class="a" d="M414.568,92.9v31.832H382.429V105.6h23.95v-5.2h-23.95V92.9Zm-8.189,24.716v-5.509H390.616v5.509Z"/><path class="a" d="M454.356,124.809h-23.95V136.9h-7.882v-44h31.832Zm-7.882-23.95H430.406V116.85h16.068Z"/><path class="a" d="M494.376,124.809h-23.95V136.9h-7.882v-44h31.832Zm-7.882-23.95H470.426V116.85h16.068Z"/><path class="a" d="M349.551,158.67a2.04,2.04,0,0,0-1.535.631,2.267,2.267,0,0,0-.612,1.649,2.343,2.343,0,0,0,.612,1.683,2.026,2.026,0,0,0,1.535.642,1.988,1.988,0,0,0,1.509-.655,2.553,2.553,0,0,0,.011-3.309,1.99,1.99,0,0,0-1.52-.642m-2.06-4.621v3.873a3.662,3.662,0,0,1,1.148-.795,3.321,3.321,0,0,1,1.32-.266,3.4,3.4,0,0,1,2.6,1.156,4.191,4.191,0,0,1,1.069,2.961,4.1,4.1,0,0,1-1.105,2.918,3.478,3.478,0,0,1-2.619,1.171,3.241,3.241,0,0,1-1.256-.24,3.811,3.811,0,0,1-1.154-.784v.825h-1.945V154.049Z"/><polygon class="a" points="354.38 157.062 356.383 157.062 358.411 161.959 360.647 157.062 362.653 157.062 357.764 167.724 355.743 167.724 357.348 164.285 354.38 157.062"/><path class="a" d="M386.592,149.744l-1.409,1.335a10.768,10.768,0,0,0-3.329-2.268,8.967,8.967,0,0,0-3.528-.772,8.41,8.41,0,0,0-4.07,1.05,7.607,7.607,0,0,0-3,2.848,7.353,7.353,0,0,0-1.063,3.8,7.508,7.508,0,0,0,1.1,3.9,7.835,7.835,0,0,0,3.04,2.9,8.753,8.753,0,0,0,4.251,1.054,7.25,7.25,0,0,0,4.744-1.581,6.24,6.24,0,0,0,2.3-4.1h-5.794v-1.756h7.833a9.122,9.122,0,0,1-2.5,6.691,8.963,8.963,0,0,1-6.63,2.476,9.956,9.956,0,0,1-7.981-3.435,9.118,9.118,0,0,1-2.262-6.115,9.381,9.381,0,0,1,1.3-4.808,9.245,9.245,0,0,1,3.558-3.477,10.384,10.384,0,0,1,5.116-1.254,11.359,11.359,0,0,1,4.349.835,12.947,12.947,0,0,1,3.979,2.674"/><path class="a" d="M402.161,156.787a5.778,5.778,0,0,0-1.008-2.213,4.762,4.762,0,0,0-1.751-1.333,5.354,5.354,0,0,0-2.289-.508,4.927,4.927,0,0,0-3.4,1.273,5.733,5.733,0,0,0-1.571,2.78Zm0,3.62,1.458.767a7.954,7.954,0,0,1-1.658,2.272,6.568,6.568,0,0,1-2.115,1.316,7.343,7.343,0,0,1-2.659.451,6.424,6.424,0,0,1-5.144-2.155,7.273,7.273,0,0,1-1.856-4.874,7.184,7.184,0,0,1,1.571-4.559,6.419,6.419,0,0,1,5.331-2.546,6.631,6.631,0,0,1,5.49,2.608,7.274,7.274,0,0,1,1.484,4.6h-12.1a5.488,5.488,0,0,0,1.5,3.841,4.774,4.774,0,0,0,3.577,1.5,5.786,5.786,0,0,0,2-.355,5.249,5.249,0,0,0,1.652-.948,8.059,8.059,0,0,0,1.473-1.909"/><path class="a" d="M413.645,152.771a4.988,4.988,0,0,0-3.707,1.594,5.333,5.333,0,0,0-1.552,3.856,5.462,5.462,0,0,0,.708,2.719A5.014,5.014,0,0,0,411,162.884a5.427,5.427,0,0,0,5.284,0,5.014,5.014,0,0,0,1.909-1.945,5.482,5.482,0,0,0,.706-2.719,5.319,5.319,0,0,0-1.556-3.856,4.994,4.994,0,0,0-3.7-1.594m.006-1.692a6.658,6.658,0,0,1,5.148,2.249,7.216,7.216,0,0,1-.1,9.78,7.107,7.107,0,0,1-10.1,0,7.2,7.2,0,0,1-.1-9.767,6.655,6.655,0,0,1,5.161-2.262"/><path class="a" d="M430.344,152.747a5.494,5.494,0,0,0-2.731.71,5.161,5.161,0,0,0-1.977,1.964,5.4,5.4,0,0,0-.716,2.714,4.891,4.891,0,0,0,1.484,3.656,5.843,5.843,0,0,0,7.68.013,5.062,5.062,0,0,0,1.452-3.769,5.463,5.463,0,0,0-.667-2.712,4.868,4.868,0,0,0-1.892-1.883,5.232,5.232,0,0,0-2.631-.693m5.1-1.322h1.73v10.713a12.643,12.643,0,0,1-.5,4.138,5.375,5.375,0,0,1-2.359,2.855,7.757,7.757,0,0,1-4.041,1,9.275,9.275,0,0,1-3.108-.489,6.241,6.241,0,0,1-2.242-1.314,7.868,7.868,0,0,1-1.594-2.41h1.879A4.969,4.969,0,0,0,427.2,167.9a6.377,6.377,0,0,0,3.006.642,6.205,6.205,0,0,0,2.989-.659,4.03,4.03,0,0,0,1.737-1.656,7.348,7.348,0,0,0,.521-3.22v-.693a6.557,6.557,0,0,1-2.387,1.9,7.086,7.086,0,0,1-6.481-.259,6.547,6.547,0,0,1-2.523-2.478,6.755,6.755,0,0,1-.891-3.422,7,7,0,0,1,6.951-6.97,6.432,6.432,0,0,1,2.814.625,7.759,7.759,0,0,1,2.517,2.058Z"/><path class="a" d="M440.229,151.425H442v1.964a6.169,6.169,0,0,1,1.666-1.734,3.279,3.279,0,0,1,1.83-.576,3.158,3.158,0,0,1,1.53.457l-.9,1.458a2.423,2.423,0,0,0-.914-.234,2.5,2.5,0,0,0-1.669.71,4.481,4.481,0,0,0-1.222,2.206A21.111,21.111,0,0,0,442,160.32v4.549h-1.768Z"/><path class="a" d="M454.977,152.747a5.213,5.213,0,0,0-4.61,2.7,5.442,5.442,0,0,0,.006,5.431,5.31,5.31,0,0,0,1.956,2.017,5.119,5.119,0,0,0,2.636.723,5.417,5.417,0,0,0,2.691-.716,5.028,5.028,0,0,0,1.956-1.939,5.527,5.527,0,0,0,.684-2.753,5.345,5.345,0,0,0-1.537-3.9,5.086,5.086,0,0,0-3.781-1.569m6.912-1.322v13.444h-1.7v-2.31a7.446,7.446,0,0,1-2.44,1.987,6.82,6.82,0,0,1-7.835-1.4,6.945,6.945,0,0,1-2.019-5.035,6.815,6.815,0,0,1,2.038-4.967,6.649,6.649,0,0,1,4.906-2.064,6.335,6.335,0,0,1,2.995.706,6.814,6.814,0,0,1,2.355,2.113v-2.472Z"/><path class="a" d="M471.317,146.235v1.692a4.271,4.271,0,0,0-1.63-.408,1.568,1.568,0,0,0-.842.206.909.909,0,0,0-.421.468,6.572,6.572,0,0,0-.085,1.416l0,1.815h2.808v1.5h-2.808l-.011,11.948H466.6V152.92h-1.768v-1.5H466.6v-2.1a5.736,5.736,0,0,1,.264-2.064,2.14,2.14,0,0,1,.9-.995,2.97,2.97,0,0,1,1.539-.376,7.271,7.271,0,0,1,2.013.346"/><path class="a" d="M473.466,151.424h1.73v13.444h-1.73Zm.859-5.535a1.427,1.427,0,0,1,0,2.855,1.43,1.43,0,0,1-1.414-1.422,1.382,1.382,0,0,1,.417-1.012,1.358,1.358,0,0,1,1-.421"/><path class="a" d="M485.273,152.747a5.219,5.219,0,0,0-4.61,2.7,5.442,5.442,0,0,0,.006,5.431,5.31,5.31,0,0,0,1.956,2.017,5.125,5.125,0,0,0,2.636.723,5.417,5.417,0,0,0,2.691-.716,5.014,5.014,0,0,0,1.956-1.939,5.527,5.527,0,0,0,.684-2.753,5.345,5.345,0,0,0-1.537-3.9,5.086,5.086,0,0,0-3.781-1.569m6.912-1.322v13.444h-1.7v-2.31a7.425,7.425,0,0,1-2.44,1.987,6.817,6.817,0,0,1-7.833-1.4,6.938,6.938,0,0,1-2.021-5.035,6.815,6.815,0,0,1,2.038-4.967,6.649,6.649,0,0,1,4.906-2.064,6.349,6.349,0,0,1,3,.706,6.827,6.827,0,0,1,2.353,2.113v-2.472Z"/></svg>